Coordinates
version=1
nRows=32
nColumns=34
inDegrees=no

Units are S.I. units (second, meters, Newtons, ...)
If the header above contains a line with 'inDegrees', this indicates whether rotational values are in degrees (yes) or radians (no).

endheader
time	pelvis_tilt	pelvis_list	pelvis_rotation	pelvis_tx	pelvis_ty	pelvis_tz	hip_flexion_r	hip_adduction_r	hip_rotation_r	knee_angle_r	ankle_angle_r	subtalar_angle_r	mtp_angle_r	hip_flexion_l	hip_adduction_l	hip_rotation_l	knee_angle_l	ankle_angle_l	subtalar_angle_l	mtp_angle_l	lumbar_extension	lumbar_bending	lumbar_rotation	arm_flex_r	arm_add_r	arm_rot_r	elbow_flex_r	pro_sup_r	arm_flex_l	arm_add_l	arm_rot_l	elbow_flex_l	pro_sup_l
3.87	-0.08573	-0.00265278	-0.0225034	-0.141059	0.958316	-0.602984	0.022512	-0.0699114	0.168054	0.018816	0.117025	-0.234054	0	0.0103507	-0.0695053	0.138371	0	0.0859358	-0.273076	0	-0.0136924	-0.00322003	-0.0569118	-0.0594689	-0.152911	0.073979	0.646137	2.09	-0.0832997	-0.149623	0.0398217	0.61197	2.09
3.88	-0.0857989	-0.00262306	-0.0224996	-0.141061	0.958312	-0.602986	0.0226027	-0.0699464	0.167959	0.0188429	0.117086	-0.233879	0	0.0104413	-0.0694694	0.138379	0	0.0859479	-0.273058	0	-0.0136069	-0.00325302	-0.0569667	-0.0594279	-0.152951	0.0742237	0.646068	2.09	-0.0833491	-0.149615	0.0397359	0.611992	2.09
3.89	-0.0859219	-0.0023885	-0.0227601	-0.141193	0.958339	-0.603026	0.0230734	-0.0702268	0.167873	0.0190993	0.117001	-0.233196	0	0.0107476	-0.0691556	0.138248	0	0.0860657	-0.273043	0	-0.0133559	-0.00362972	-0.0568161	-0.0592895	-0.153497	0.0750556	0.645807	2.09	-0.0835428	-0.149703	0.0396058	0.61197	2.09
3.9	-0.0859344	-0.00235614	-0.0228263	-0.141199	0.958339	-0.603021	0.0231396	-0.0702547	0.167918	0.019167	0.117051	-0.233118	0	0.0107556	-0.0691232	0.13809	0	0.0860703	-0.272934	0	-0.0133536	-0.00366632	-0.0567363	-0.0592717	-0.153501	0.0750899	0.645774	2.09	-0.0835118	-0.149721	0.0396882	0.611941	2.09
3.91	-0.0859403	-0.00229689	-0.0229012	-0.141207	0.95834	-0.603016	0.023208	-0.0703107	0.168007	0.0192447	0.117085	-0.233109	0	0.0107554	-0.0690621	0.137868	0	0.0860672	-0.272741	0	-0.0133636	-0.00373288	-0.0566234	-0.0592806	-0.153471	0.0749511	0.64578	2.09	-0.0834537	-0.149732	0.0397351	0.611879	2.09
3.92	-0.0859434	-0.00206472	-0.0229513	-0.14141	0.958396	-0.603056	0.0236357	-0.0706292	0.168167	0.0195322	0.117179	-0.232975	0	0.0109265	-0.0687624	0.137489	0	0.0859439	-0.272374	0	-0.0133392	-0.00418288	-0.0565198	-0.0594214	-0.153769	0.0743308	0.645764	2.09	-0.083472	-0.150032	0.0392897	0.611503	2.09
3.93	-0.0860413	-0.00203907	-0.0229475	-0.141413	0.958389	-0.603058	0.0237623	-0.0706575	0.168091	0.0195643	0.117265	-0.232804	0	0.0110602	-0.0687321	0.137453	0	0.0860241	-0.272264	0	-0.0132248	-0.00420871	-0.0565218	-0.05944	-0.153741	0.0742127	0.645753	2.09	-0.0834777	-0.150003	0.0391649	0.611467	2.09
3.94	-0.0861301	-0.00208949	-0.0229143	-0.141418	0.958383	-0.60306	0.0238742	-0.0706009	0.167926	0.0195984	0.117335	-0.232581	0	0.0111908	-0.0687867	0.137459	0	0.0861066	-0.272165	0	-0.0131237	-0.00414895	-0.056562	-0.0594448	-0.153733	0.0741314	0.645731	2.09	-0.0834712	-0.149958	0.0390255	0.611389	2.09
3.95	-0.0860935	-0.00249733	-0.0225563	-0.141581	0.95842	-0.603175	0.0241168	-0.0702617	0.167491	0.0199241	0.117239	-0.232253	0	0.0114765	-0.0690596	0.137483	0	0.0861299	-0.272005	0	-0.0130062	-0.00395871	-0.0568495	-0.0596665	-0.15422	0.0738739	0.645693	2.09	-0.0834059	-0.150082	0.038484	0.610743	2.09
3.96	-0.0861792	-0.00247091	-0.0225197	-0.141585	0.958414	-0.603179	0.0242176	-0.0702937	0.167396	0.0199344	0.117235	-0.232177	0	0.0116061	-0.069026	0.137535	4.63791e-05	0.0861502	-0.271979	0	-0.0129104	-0.00398428	-0.0568911	-0.0596774	-0.154215	0.0738556	0.645705	2.09	-0.0833992	-0.150065	0.0384143	0.61068	2.09
3.97	-0.0865159	-0.00206902	-0.0226215	-0.141755	0.958361	-0.603244	0.0245542	-0.0708237	0.167615	0.0194095	0.116869	-0.232373	0	0.0122863	-0.0685767	0.137699	0.00025788	0.0862054	-0.271796	0	-0.0124746	-0.00441029	-0.0569572	-0.0596373	-0.154347	0.073873	0.645876	2.09	-0.0834975	-0.150523	0.0384678	0.6104	2.09
3.98	-0.0865849	-0.0020548	-0.0226383	-0.141753	0.958355	-0.603241	0.0246041	-0.0708363	0.167883	0.0193495	0.116672	-0.232782	0	0.0123551	-0.0685655	0.137659	0.000251465	0.0861655	-0.271788	0	-0.012379	-0.00442592	-0.0569199	-0.0596822	-0.154364	0.0739277	0.64591	2.09	-0.0835058	-0.150578	0.038701	0.610386	2.09
3.99	-0.0868073	-0.00226251	-0.0228909	-0.141868	0.958337	-0.603266	0.0247382	-0.0707077	0.168873	0.0187807	0.116147	-0.234003	0	0.012572	-0.0688236	0.137594	0	0.0855159	-0.272001	0	-0.0119629	-0.00427878	-0.0567679	-0.0598968	-0.154854	0.0746786	0.646335	2.09	-0.0838314	-0.15138	0.0398072	0.610428	2.09
4	-0.0868637	-0.00228492	-0.0229179	-0.141868	0.958332	-0.603263	0.024816	-0.0706717	0.169079	0.0187963	0.115944	-0.234372	0	0.012625	-0.0688514	0.13763	0	0.0853974	-0.272176	0	-0.0118907	-0.00425195	-0.0567402	-0.0599117	-0.154897	0.0748359	0.646354	2.09	-0.0838331	-0.151409	0.0399651	0.610394	2.09
4.01	-0.0870918	-0.00237282	-0.0231032	-0.141997	0.95834	-0.603277	0.0253925	-0.0705392	0.169431	0.0190859	0.115486	-0.234572	0	0.0129061	-0.0689465	0.13757	0	0.0851994	-0.272295	0	-0.0115577	-0.00426398	-0.0567306	-0.0599038	-0.155054	0.0752496	0.64658	2.09	-0.0839798	-0.151946	0.0404189	0.610309	2.09
4.02	-0.0871391	-0.00235068	-0.0230882	-0.142001	0.958337	-0.603277	0.0254559	-0.0705602	0.169392	0.0191019	0.115477	-0.234539	0	0.0129797	-0.0689238	0.137549	0	0.0852456	-0.272201	0	-0.0115087	-0.00429356	-0.0567411	-0.059911	-0.155029	0.0751891	0.646583	2.09	-0.0839784	-0.151975	0.0404901	0.610307	2.09
4.03	-0.0870926	-0.0022434	-0.0228466	-0.142153	0.958394	-0.603333	0.0256507	-0.070705	0.169234	0.0192789	0.115379	-0.234493	0	0.013264	-0.0687281	0.13756	4.83429e-05	0.085429	-0.271824	0	-0.0115342	-0.00462295	-0.0571261	-0.0597039	-0.154934	0.0750747	0.646481	2.09	-0.0840914	-0.152656	0.0407077	0.610424	2.09
4.04	-0.0871505	-0.00221559	-0.0228157	-0.142158	0.95839	-0.603335	0.0257314	-0.0707344	0.169161	0.0193092	0.11542	-0.234416	0	0.0133677	-0.0686948	0.137557	0.000106007	0.0854907	-0.271711	0	-0.0114747	-0.00465802	-0.0571884	-0.0596632	-0.154923	0.0751262	0.646407	2.09	-0.084115	-0.152678	0.0407218	0.610446	2.09
4.05	-0.0873787	-0.00207553	-0.0227462	-0.142314	0.958427	-0.603411	0.0262591	-0.0709439	0.168754	0.0194794	0.11543	-0.233963	0	0.0139606	-0.0684078	0.137615	0.000382819	0.0854934	-0.271571	0	-0.011123	-0.00490926	-0.057463	-0.0594254	-0.154963	0.0752849	0.646085	2.09	-0.084116	-0.153261	0.0407002	0.610422	2.09
4.06	-0.0874622	-0.00204944	-0.0227267	-0.14232	0.958422	-0.603413	0.0263729	-0.0709727	0.168606	0.0195151	0.115506	-0.23374	0	0.01409	-0.0683752	0.137659	0.000434377	0.0854762	-0.271597	0	-0.0110331	-0.00494013	-0.0574915	-0.0594206	-0.154985	0.0754202	0.646078	2.09	-0.0841126	-0.153265	0.0406861	0.610383	2.09
4.07	-0.0875176	-0.00198266	-0.0224739	-0.142475	0.958447	-0.603439	0.0266579	-0.0710712	0.168188	0.0196583	0.115375	-0.232929	0	0.0145977	-0.068243	0.137901	0.000770472	0.0853653	-0.271616	0	-0.0109323	-0.00516587	-0.0575879	-0.0594746	-0.155251	0.0763552	0.646365	2.09	-0.083713	-0.153905	0.0404755	0.610188	2.09
4.08	-0.0875391	-0.00198351	-0.0224564	-0.142481	0.958446	-0.603439	0.0266833	-0.0710713	0.168131	0.0196532	0.11541	-0.232803	0	0.0146607	-0.0682432	0.137916	0.00082881	0.0853782	-0.271569	0	-0.0109263	-0.00517376	-0.0576285	-0.0594411	-0.155253	0.0764286	0.646341	2.09	-0.0837376	-0.15391	0.0403981	0.610265	2.09
4.09	-0.0874656	-0.0020703	-0.0225606	-0.142667	0.958464	-0.603449	0.02663	-0.0710379	0.168362	0.0192521	0.115294	-0.233129	0	0.0149467	-0.0683162	0.137903	0.00115371	0.0852327	-0.271304	0	-0.0110308	-0.005272	-0.0574621	-0.059287	-0.155171	0.0762202	0.646238	2.09	-0.0835764	-0.154634	0.0402203	0.610762	2.09
4.1	-0.0873202	-0.00209966	-0.0227661	-0.142732	0.958475	-0.603444	0.0264893	-0.0710118	0.168891	0.0190464	0.11491	-0.234323	0	0.0148527	-0.0683588	0.137568	0.00119141	0.0852253	-0.271062	0	-0.0111168	-0.00537034	-0.0571422	-0.0593005	-0.155016	0.0760335	0.646282	2.09	-0.083449	-0.154839	0.0401533	0.610867	2.09
4.11	-0.0871427	-0.00218845	-0.0229417	-0.14279	0.958486	-0.603434	0.0264054	-0.0708844	0.169308	0.0190501	0.114329	-0.234854	0	0.0146988	-0.0684721	0.137258	0.00117768	0.0852718	-0.270974	0	-0.0112261	-0.00538647	-0.0568173	-0.0594099	-0.154994	0.076322	0.646604	2.09	-0.0831728	-0.154939	0.039993	0.610617	2.09
4.12	-0.0871185	-0.00231048	-0.0229722	-0.142865	0.958488	-0.603419	0.0264955	-0.0707182	0.169424	0.0190938	0.113851	-0.234797	0	0.0148129	-0.0686366	0.137163	0.0012894	0.0852671	-0.270858	0	-0.0112271	-0.00534689	-0.0567366	-0.0594451	-0.154967	0.0766478	0.646853	2.09	-0.0829515	-0.155069	0.0396013	0.610452	2.09
4.13	-0.0871881	-0.00232739	-0.0229408	-0.14287	0.958483	-0.603419	0.0265798	-0.070694	0.169415	0.0191049	0.11378	-0.234874	0	0.0149266	-0.0686569	0.137179	0.0013422	0.0852916	-0.270781	0	-0.0111555	-0.00533411	-0.0568031	-0.0594155	-0.154965	0.0767161	0.646813	2.09	-0.0829796	-0.155053	0.0394706	0.610466	2.09
4.14	-0.087294	-0.0024495	-0.0227113	-0.142993	0.958482	-0.603396	0.0268358	-0.0705598	0.169374	0.0191638	0.113606	-0.235199	0	0.0153396	-0.0688206	0.137293	0.00157503	0.0852084	-0.27053	0	-0.0109339	-0.00535932	-0.0570975	-0.0592386	-0.154816	0.0768477	0.646517	2.09	-0.0829126	-0.155454	0.0391616	0.610504	2.09
4.15	-0.0873526	-0.00246213	-0.0226815	-0.142997	0.958478	-0.603395	0.0269045	-0.0705377	0.169358	0.0191708	0.113547	-0.235286	0	0.0154362	-0.0688379	0.137303	0.00162363	0.0852748	-0.270456	0	-0.0108694	-0.00535864	-0.0571714	-0.0591843	-0.154807	0.0769538	0.646408	2.09	-0.0829603	-0.155466	0.0390968	0.610561	2.09
4.16	-0.0874149	-0.00252327	-0.0226206	-0.143127	0.958488	-0.603358	0.0271599	-0.0704329	0.169137	0.0192261	0.113318	-0.235166	0	0.0157686	-0.0689056	0.137157	0.00176724	0.0855088	-0.270412	0	-0.010594	-0.00550049	-0.0572939	-0.0589416	-0.154647	0.0774623	0.646014	2.09	-0.082911	-0.155998	0.0386728	0.610894	2.09
4.17	-0.0875222	-0.00240901	-0.0226931	-0.143203	0.958501	-0.60336	0.0274142	-0.0705637	0.169027	0.0192652	0.113215	-0.23472	0	0.0159988	-0.0687602	0.13705	0.00181467	0.0853679	-0.270278	0	-0.010394	-0.00565483	-0.0573582	-0.0588127	-0.154634	0.0778523	0.645983	2.09	-0.0829491	-0.156067	0.0381192	0.611138	2.09
4.18	-0.0875085	-0.00232237	-0.0227431	-0.143275	0.958526	-0.603346	0.0274774	-0.0706496	0.168738	0.0192081	0.113289	-0.234211	0	0.0160839	-0.068664	0.136965	0.00183293	0.0851178	-0.270153	0	-0.0103811	-0.00579615	-0.0574068	-0.0586605	-0.154554	0.0779671	0.645938	2.09	-0.0829497	-0.156181	0.0379119	0.61139	2.09
